<svg xmlns="http://www.w3.org/2000/svg" viewBox="0 0 65.16 65.16"><g transform="translate(-207.42,-147.42)"><path d="M237.28,169.54c0.76,-0.24 1.68,-0.42 2.72,-0.44c-0.66,1.6 -1.54,2.8 -2.5,3.76c-0.14,-0.98 -0.22,-2.06 -0.22,-3.28zM233.5,175.18c-0.64,0 -0.92,-0.34 -0.92,-0.96c0,-1.12 1,-2.64 2.48,-3.64c0.04,1.36 0.2,2.72 0.42,3.96c-0.74,0.42 -1.42,0.64 -1.98,0.64zM227.09,185.75h12.38v2.94h2.46v-5.16h-7.36v-1.92h-2.52v1.92h-7.3v5.16h2.34zM242.09,192.29h-7.5v-0.16c1.66,-1 3.2,-2.4 4.34,-3.72l-1.52,-1.16l-0.56,0.12h-8.78v2.16h6.68c-0.56,0.54 -1.2,1.08 -1.82,1.5h-0.86v1.26h-7.4v2.26h7.4v2.94c0,0.28 -0.12,0.36 -0.52,0.36c-0.4,0.02 -1.9,0 -3.12,-0.04c0.4,0.66 0.88,1.72 1.04,2.44c1.64,0 2.92,-0.04 3.86,-0.4c0.98,-0.38 1.26,-1 1.26,-2.3v-3h7.5zM240.84,165.9c-0.02,0.28 -0.1,0.78 -0.18,1.18h-0.34c-0.98,0 -2.02,0.14 -2.96,0.36c0.02,-0.6 0.08,-1.2 0.14,-1.78c2.44,-0.12 5.1,-0.36 7.04,-0.72l-0.02,-2.28c-2.18,0.52 -4.32,0.76 -6.72,0.84c0.06,-0.38 0.12,-0.74 0.2,-1.06c0.06,-0.3 0.14,-0.66 0.28,-1.06l-2.6,-0.06c0.02,0.34 -0.02,0.82 -0.06,1.18l-0.12,1.06h-0.76c-1.22,0 -2.96,-0.16 -3.66,-0.26l0.08,2.3c0.92,0.04 2.46,0.12 3.5,0.12h0.64c-0.08,0.8 -0.14,1.64 -0.2,2.48c-2.76,1.3 -4.86,3.98 -4.86,6.5c0,2.02 1.22,2.9 2.68,2.9c1.04,0 2.1,-0.32 3.06,-0.8c0.08,0.28 0.18,0.56 0.26,0.8l2.28,-0.68c-0.16,-0.48 -0.32,-0.96 -0.46,-1.48c1.5,-1.24 3.08,-3.3 4.18,-6c1.34,0.52 2.04,1.58 2.04,2.78c0,1.94 -1.56,3.86 -5.38,4.28l1.32,2.08c4.86,-0.72 6.52,-3.46 6.52,-6.24c0,-2.32 -1.52,-4.1 -3.82,-4.86c0.12,-0.38 0.26,-0.8 0.36,-1.02zM210.42,147.42h59.16c1.656,0 3,1.344 3,3v59.16c0,1.656 -1.344,3 -3,3h-59.16c-1.656,0 -3,-1.344 -3,-3v-59.16c0,-1.656 1.344,-3 3,-3zM250.88,185.62l0.44,-1.62c0.44,-1.54 0.88,-3.22 1.26,-4.84h0.08c0.44,1.6 0.84,3.3 1.3,4.84l0.44,1.62zM256.08,191.72h3.1l-4.76,-14.8h-3.48l-4.74,14.8h3l1.04,-3.8h4.8z" fill="#4a86e8" stroke="none"/></g></svg>