<?xml version="1.0" encoding="UTF-8" standalone="no"?>
<svg
   version="1.1"
   width="426.44246"
   height="195.24254"
   viewBox="0,0,426.44246,195.24254"
   id="svg926"
   xmlns="http://www.w3.org/2000/svg"
   xmlns:svg="http://www.w3.org/2000/svg">
  <defs
     id="defs930" />
  <path
     d=""
     stroke="#303030"
     stroke-width="10"
     stroke-linecap="butt"
     stroke-miterlimit="10"
     id="path894"
     style="mix-blend-mode:normal;fill:none;fill-rule:nonzero;stroke-linejoin:miter;stroke-dasharray:none;stroke-dashoffset:0" />
  <path
     style="color:#303030;fill:#ffffff;stroke-miterlimit:10;-inkscape-stroke:none"
     d="m 265.3418,73.460937 c -40.3943,7.16381 -67.46265,45.904533 -60.29883,86.298833 l 14.76953,-2.61915 c -5.74823,-32.41225 15.73618,-63.161934 48.14844,-68.910151 z"
     id="path878" />
  <path
     style="color:#303030;fill:#ffffff;stroke-miterlimit:10;-inkscape-stroke:none"
     d="m 267.07031,82.363281 -14.81445,2.351563 13.88476,87.515626 14.81641,-2.34961 z"
     id="path880" />
  <path
     style="color:#303030;fill:#ffffff;stroke-miterlimit:10;-inkscape-stroke:none"
     d="m 290.97656,129.45312 -82.22851,14.51758 2.60937,14.77149 82.22852,-14.51758 z"
     id="path882" />
  <path
     style="color:#303030;fill:#ffffff;stroke-miterlimit:10;-inkscape-stroke:none"
     d="m 388.80469,49.894531 c -1.89002,-0.07707 -3.81214,0.03566 -5.7461,0.353516 -15.47163,2.542851 -26.08582,17.331106 -23.54297,32.802734 l 14.80274,-2.433594 c -1.22812,-7.472348 3.69951,-14.340233 11.17187,-15.568359 7.47237,-1.228125 14.34219,3.701477 15.57032,11.173828 1.22812,7.472344 -3.70148,14.340236 -11.17383,15.56836 l 2.43164,14.800784 c 15.47163,-2.54286 26.08582,-17.331104 23.54297,-32.802738 -2.225,-13.537672 -13.82649,-23.35503 -27.05664,-23.894531 z"
     id="path884" />
  <path
     style="color:#303030;fill:#ffffff;stroke-miterlimit:10;-inkscape-stroke:none"
     d="m 395.59961,91.576172 c -2.1486,-0.08715 -4.33395,0.03893 -6.5332,0.40039 l 2.43164,14.802738 c 9.59475,-1.57696 18.46602,4.79001 20.04297,14.38476 1.57694,9.59474 -4.79003,18.46602 -14.38477,20.04297 -9.59475,1.57695 -18.46602,-4.79001 -20.04297,-14.38476 l -14.80078,2.43359 c 2.89167,17.59402 19.68332,29.64363 37.27734,26.75195 17.59402,-2.89168 29.64558,-19.68333 26.75391,-37.27734 -2.53021,-15.39477 -15.70394,-26.544272 -30.74414,-27.154298 z"
     id="path886" />
  <path
     style="color:#303030;fill:#ffffff;stroke-miterlimit:10;-inkscape-stroke:none"
     d="m 324.71875,61.335937 -14.81641,2.351563 15.92774,100.38086 14.81445,-2.35156 z"
     id="path888" />
  <path
     style="color:#303030;fill:#303030;stroke-linecap:square;stroke-miterlimit:3;-inkscape-stroke:none"
     d="m 67.640625,53.503906 c -3.244202,-0.148226 -6.548433,0.02884 -9.875,0.556641 -26.612528,4.222357 -44.909869,29.422628 -40.6875,56.035153 l 1.173828,7.40625 14.816406,-2.34961 -1.175781,-7.4082 C 28.942394,89.149874 41.522921,71.825176 60.117187,68.875 78.71145,65.924817 96.036145,78.505365 98.986328,97.099609 l 1.175782,7.406251 14.81445,-2.34961 -1.17578,-7.408203 C 110.10621,71.4621 90.350036,54.541488 67.640625,53.503906 Z"
     id="path890" />
  <path
     style="color:#303030;fill:#303030;stroke-miterlimit:10;-inkscape-stroke:none"
     d="m 113.73438,94.242187 -14.814458,2.34961 5.228518,32.955073 14.81445,-2.35156 z"
     id="path892" />
  <path
     style="color:#303030;fill:#ffffff;stroke-linecap:square;stroke-miterlimit:3;-inkscape-stroke:none"
     d="m 180.88867,131.70703 -14.81445,2.35156 1.17578,7.40821 c 2.95018,18.59426 -9.63034,35.91896 -28.22461,38.86914 -18.59426,2.95018 -35.91896,-9.63034 -38.86914,-28.22461 l -1.175781,-7.40821 -14.814453,2.35157 1.175781,7.40625 c 4.222368,26.61252 29.420673,44.91182 56.033203,40.68945 26.61253,-4.22236 44.91182,-29.42263 40.68945,-56.03516 z"
     id="path896" />
  <path
     style="color:#303030;fill:#ffffff;stroke-miterlimit:10;-inkscape-stroke:none"
     d="M 94.564453,116.7793 79.75,119.12891 l 5.228516,32.95312 14.814453,-2.34961 z"
     id="path898" />
  <path
     style="color:#303030;fill:#ffffff;stroke-miterlimit:10;-inkscape-stroke:none"
     d="m 176.92969,106.66406 -14.81446,2.34961 5.22852,32.95508 14.81445,-2.35156 z"
     id="path900" />
  <path
     style="color:#303030;fill:#ffffff;stroke-linecap:square;stroke-miterlimit:3;-inkscape-stroke:none"
     d="m 130.63086,64.599609 c -3.2442,-0.148226 -6.54843,0.02689 -9.875,0.554688 l -7.4082,1.175781 2.35156,14.814453 7.40625,-1.175781 c 18.59426,-2.950184 35.91896,9.630345 38.86914,28.22461 l 1.17578,7.40625 14.81445,-2.34961 -1.17578,-7.4082 C 173.0945,82.555833 153.34027,65.637191 130.63086,64.599609 Z"
     id="path902" />
  <path
     style="color:#303030;fill:#303030;stroke-miterlimit:10;-inkscape-stroke:none"
     d="M 14.814453,0 0,2.3496094 21.525391,138.01953 36.339844,135.66797 Z"
     id="path904" />
  <path
     style="color:#303030;fill:#303030;stroke-miterlimit:10;-inkscape-stroke:none"
     d="m 145.31836,41.03125 -14.81445,2.349609 12.6875,79.972661 14.81445,-2.35157 z"
     id="path906" />
  <path
     style="color:#303030;fill:#303030;stroke-miterlimit:10;-inkscape-stroke:none"
     d="m 182.98437,34.363281 -14.81445,2.351563 12.68945,79.970706 14.81446,-2.34961 z"
     id="path908" />
  <path
     style="color:#303030;fill:#303030;stroke-miterlimit:10;-inkscape-stroke:none"
     d="m 212.52734,29.537109 c -24.64408,4.370552 -41.2104,28.076624 -36.83984,52.720703 l 14.76953,-2.61914 c -2.95497,-16.662039 8.02742,-32.37707 24.68945,-35.332031 z"
     id="path910" />
  <path
     style="color:#303030;fill:#303030;stroke-linecap:square;stroke-miterlimit:3;-inkscape-stroke:none"
     d="m 267.06641,21.164062 c -2.69997,-0.123879 -5.44907,0.02181 -8.2168,0.460938 -22.14186,3.513038 -37.38805,24.506584 -33.875,46.648437 l 1.17578,7.408204 14.81445,-2.351563 -1.17578,-7.40625 c -2.24086,-14.12359 7.28657,-27.243519 21.41016,-29.484375 14.12358,-2.240863 27.24351,7.284634 29.48437,21.408203 l 1.17578,7.408203 14.81446,-2.349609 -1.17578,-7.408203 C 302.42413,36.123942 285.96617,22.031217 267.06641,21.164062 Z"
     id="path912" />
  <path
     style="color:#303030;fill:#303030;stroke-linecap:square;stroke-miterlimit:3;-inkscape-stroke:none"
     d="m 304.97656,51.855469 -14.81445,2.349609 1.17578,7.408203 c 2.24086,14.12359 -7.28657,27.243519 -21.41016,29.484375 -14.12358,2.240863 -27.24155,-7.286587 -29.48242,-21.410156 l -1.17578,-7.40625 -14.81445,2.349609 1.17383,7.408203 c 3.51305,22.141835 24.50853,37.386098 46.65039,33.873048 22.14185,-3.51304 37.38609,-24.506584 33.87304,-46.648438 z"
     id="path914" />
  <path
     style="color:#303030;fill:#303030;stroke-miterlimit:10;-inkscape-stroke:none"
     d="m 331.98437,12.363281 -14.81445,2.351563 12.68945,79.970703 14.81446,-2.34961 z"
     id="path916" />
  <path
     style="color:#303030;fill:#303030;stroke-linecap:square;stroke-miterlimit:3;-inkscape-stroke:none"
     d="m 360.70117,8.4921875 c -2.42295,-0.1114867 -4.88976,0.020061 -7.37305,0.4140625 -19.86629,3.151999 -33.5563,22.004796 -30.40429,41.871094 l 1.17383,7.408203 14.8164,-2.351563 -1.17578,-7.40625 c -1.87982,-11.84803 6.09142,-22.827214 17.93945,-24.707031 11.84803,-1.879822 22.82721,6.091442 24.70704,17.939453 l 1.17578,7.408203 14.81445,-2.351562 -1.17578,-7.40625 C 392.44121,21.927555 377.66185,9.2725941 360.70117,8.4921875 Z"
     id="path918" />
  <path
     style="color:#303030;fill:#303030;stroke-miterlimit:10;-inkscape-stroke:none"
     d="m 396.40039,46.242187 -14.81445,2.34961 5.59961,35.287109 L 402,81.529297 Z"
     id="path920" />
</svg>
