<?xml version="1.0" encoding="UTF-8" standalone="no"?>
<!-- Created with Inkscape (http://www.inkscape.org/) -->

<svg
   width="60"
   height="60"
   viewBox="0 0 15.874999 15.875"
   version="1.1"
   id="svg5"
   xmlns="http://www.w3.org/2000/svg"
   xmlns:svg="http://www.w3.org/2000/svg">
  <defs
     id="defs2" />
  <g
     id="layer1">
    <g
       id="path1380">
      <path
         id="path2418"
         style="fill:#4f4f4f;fill-opacity:1;stroke:none;stroke-width:0.264583px;stroke-linecap:butt;stroke-linejoin:miter;stroke-opacity:1"
         d="m 7.7719593,2.866212 c -0.546071,-0.0024 -1.134433,0.04502 -1.75855,0.152445 -2.853101,0.491109 -5.47236196,3.087378 -4.677234,5.800164 0.795126,2.712786 3.975432,3.320727 5.542297,3.320727 1.05274,0 1.254342,-0.690213 0.959114,-1.130681 C 7.6278253,10.69591 7.0860773,10.613125 6.7849393,10.525693 6.0599703,10.315217 5.7562283,9.847606 9.0302803,9.496816 12.162796,9.161189 12.750261,6.174858 11.64924,4.375165 11.127564,3.522437 9.7222063,2.874716 7.7719593,2.866212 Z m -1.038696,1.47588 A 0.98221545,0.98221545 0 0 1 7.7156323,5.324461 0.98221545,0.98221545 0 0 1 6.7332633,6.30683 0.98221545,0.98221545 0 0 1 5.7514103,5.324461 0.98221545,0.98221545 0 0 1 6.7332633,4.342092 Z M 9.6085383,4.48937 A 0.98221545,0.98221545 0 0 1 10.590391,5.471739 0.98221545,0.98221545 0 0 1 9.6085383,6.453592 0.98221545,0.98221545 0 0 1 8.6261693,5.471739 0.98221545,0.98221545 0 0 1 9.6085383,4.48937 Z m 5.0446537,1.047999 c 0,0 -0.512149,0.01082 -0.944128,0.259932 -0.412684,0.237934 -0.744445,0.708699 -0.820622,0.947745 -0.155918,0.489265 0.114314,1.012486 0.603581,1.168403 0.489265,0.155919 1.012487,-0.114313 1.168403,-0.603578 0.07349,-0.230619 -0.05301,-0.61136 -0.0708,-0.977202 -0.01995,-0.410316 0.06356,-0.7953 0.06356,-0.7953 z M 4.1251513,5.652605 a 0.98221545,0.98221545 0 0 1 0.982372,0.981853 0.98221545,0.98221545 0 0 1 -0.982372,0.982369 0.98221545,0.98221545 0 0 1 -0.982369,-0.982369 0.98221545,0.98221545 0 0 1 0.982369,-0.981853 z m 8.7214337,2.200384 c -0.399595,0.976034 -1.916702,4.843155 -0.984437,5.140253 0.93477,0.297881 1.966835,-3.747854 2.209167,-4.759399 A 1.2375817,1.2375817 0 0 1 13.396937,8.212653 1.2375817,1.2375817 0 0 1 12.846585,7.852987 Z" />
    </g>
  </g>
</svg>
