<?xml version="1.0" encoding="UTF-8" standalone="no"?>
<!-- Created with Inkscape (http://www.inkscape.org/) -->

<svg
   width="60"
   height="60"
   viewBox="0 0 15.874999 15.875"
   version="1.1"
   id="svg5"
   xmlns="http://www.w3.org/2000/svg"
   xmlns:svg="http://www.w3.org/2000/svg">
  <defs
     id="defs2" />
  <g
     id="layer1">
    <g
       id="path1380">
      <path
         id="path11879"
         style="fill:#4f4f4f;fill-opacity:1;stroke:none;stroke-width:0.168522px;stroke-linecap:butt;stroke-linejoin:miter;stroke-opacity:1"
         d="m 5.0515497,3.3689929 c -1.727355,0 -2.874455,0.193768 -3.454711,2.359315 -0.580255,2.165546 -0.62588098,2.335507 -1.04174498,3.887536 -0.415864,1.5520291 0.02693,2.6373681 0.75933898,2.8336081 0.732412,0.19625 1.563921,-0.0897 2.268471,-1.309992 0.711771,-1.2328311 1.310744,-1.9245121 3.58044,-1.9245121 h 1.54831 c 2.2697003,0 2.8686703,0.691681 3.5804503,1.9245121 0.70454,1.220312 1.53605,1.506242 2.26846,1.309992 0.73241,-0.19624 1.17521,-1.281579 0.75934,-2.8336081 -0.41586,-1.552029 -0.46149,-1.721999 -1.04175,-3.887536 -0.58025,-2.165547 -1.72734,-2.359315 -3.45471,-2.359315 z m -0.307091,1.244167 h 0.3196 c 0.149809,0 0.270229,0.120751 0.270229,0.270557 v 0.651711 a 0.28680339,0.28680339 0 0 0 0.28668,0.286682 h 0.651716 c 0.14981,0 0.27022,0.120431 0.27022,0.270237 v 0.319592 c 0,0.149815 -0.12041,0.270557 -0.27022,0.270557 h -0.651716 a 0.28680339,0.28680339 0 0 0 -0.28668,0.286692 v 0.651381 c 0,0.149805 -0.12042,0.270557 -0.270229,0.270557 h -0.3196 c -0.14981,0 -0.270558,-0.120752 -0.270558,-0.270557 v -0.651381 a 0.28680339,0.28680339 0 0 0 -0.286686,-0.286692 h -0.651708 c -0.149809,0 -0.270229,-0.120742 -0.270229,-0.270557 v -0.319592 c 0,-0.149806 0.12042,-0.270237 0.270229,-0.270237 h 0.651708 a 0.28680339,0.28680339 0 0 0 0.286686,-0.286682 v -0.651711 c 0,-0.149806 0.120748,-0.270557 0.270558,-0.270557 z m 6.2264453,0.108948 a 0.53918078,0.53918078 0 0 1 0.53914,0.539146 0.53918078,0.53918078 0 0 1 -0.53914,0.539466 0.53918078,0.53918078 0 0 1 -0.53914,-0.539466 0.53918078,0.53918078 0 0 1 0.53914,-0.539146 z m -0.9907303,0.991063 a 0.53918078,0.53918078 0 0 1 0.5394703,0.539137 0.53918078,0.53918078 0 0 1 -0.5394703,0.538806 0.53918078,0.53918078 0 0 1 -0.53914,-0.538806 0.53918078,0.53918078 0 0 1 0.53914,-0.539137 z m 1.9814603,0 a 0.53918078,0.53918078 0 0 1 0.53914,0.539137 0.53918078,0.53918078 0 0 1 -0.53914,0.538806 0.53918078,0.53918078 0 0 1 -0.53947,-0.538806 0.53918078,0.53918078 0 0 1 0.53947,-0.539137 z m -0.99073,0.990395 a 0.53918078,0.53918078 0 0 1 0.53914,0.539466 0.53918078,0.53918078 0 0 1 -0.53914,0.539146 0.53918078,0.53918078 0 0 1 -0.53914,-0.539146 0.53918078,0.53918078 0 0 1 0.53914,-0.539466 z" />
    </g>
  </g>
</svg>
