<?xml version="1.0" encoding="UTF-8" standalone="no"?>
<!-- Created with Inkscape (http://www.inkscape.org/) -->

<svg
   width="60"
   height="60"
   viewBox="0 0 15.874999 15.875"
   version="1.1"
   id="svg5"
   xmlns="http://www.w3.org/2000/svg"
   xmlns:svg="http://www.w3.org/2000/svg">
  <defs
     id="defs2" />
  <g
     id="layer1">
    <g
       id="path1380">
      <g
         id="path2288"
         transform="translate(1.4552083,1.5875)">
        <rect
           style="opacity:1;fill:#ffffff;fill-opacity:0;fill-rule:evenodd;stroke:none;stroke-width:0.293981;stroke-miterlimit:4;stroke-dasharray:none;stroke-opacity:1"
           id="rect14896"
           width="13.229167"
           height="13.229167"
           x="0"
           y="0" />
        <path
           id="path14869"
           style="color:#000000;fill:#4f4f4f;stroke-width:0.224618;-inkscape-stroke:none"
           d="m 8.9282212,1.0856913 c -0.125254,0.0032 -0.242331,0.03198 -0.337392,0.105767 -0.130449,0.101201 -0.168954,0.254984 -0.179801,0.38393 -0.0078,0.09189 -0.03284,0.324124 -0.05394,0.529358 -0.233696,-0.318365 -0.609952,-0.701106 -1.397165,-0.767332 -1.283322,-0.107952 -2.511092,0.917412 -2.682217,2.482321 -0.08108,0.7415307 -0.120085,1.5528407 0.145427,2.2485777 0.266323,0.697855 0.871683,1.252737 1.934985,1.400867 0.972492,0.135474 1.512284,0.41139 1.796956,0.685889 0.285595,0.275385 0.33715,0.549803 0.317827,0.779494 -0.02057,0.244583 -0.114399,0.557571 -0.327873,0.783195 -0.214722,0.226952 -0.546379,0.392555 -1.145441,0.342153 -0.59192,-0.04977 -1.074249,-0.321453 -1.402982,-0.653635 -0.327901,-0.331339 -0.484542,-0.733987 -0.4659,-0.955591 l 0.05236,-0.641468 C 5.2004552,7.602402 5.1100152,7.413595 4.9609572,7.301541 4.8180822,7.194136 4.6421962,7.150712 4.4612152,7.13549 4.2984592,7.12181 4.1181842,7.11074 3.9397902,7.18361 c -0.187118,0.07645 -0.331361,0.258708 -0.375998,0.505561 -0.02174,0.120296 -0.04815,0.369649 -0.08196,0.709686 -0.03383,0.340188 -0.07246,0.76056 -0.109996,1.179287 -0.07509,0.837774 -0.142984,1.670884 -0.157591,1.844554 -0.008,0.0957 -0.01203,0.18748 0.008,0.28186 0.02066,0.0981 0.07035,0.19674 0.156004,0.26811 0.159737,0.13309 0.368065,0.15317 0.653631,0.16764 0.298694,0.0153 0.514149,-0.0181 0.665265,-0.15389 0.155243,-0.13942 0.163636,-0.33588 0.15389,-0.47753 -0.0044,-0.0638 0.0086,-0.37899 0.02591,-0.64781 0.03553,0.0431 0.0305,0.0639 0.09836,0.12427 0.341478,0.30401 0.894541,0.61309 1.700712,0.64147 0.7801119,0.0275 1.5560129,-0.0828 2.1766599,-0.45797 0.621787,-0.37575 1.064239,-1.030581 1.1549589,-1.992612 C 10.099136,8.206065 9.7275541,7.495345 9.1805491,7.031835 8.6348041,6.569396 7.9332131,6.334257 7.3296521,6.216385 6.7579692,6.104739 6.3484822,5.983474 6.1202202,5.764765 5.8897522,5.543943 5.7729302,5.199916 5.8325382,4.491345 c 0.06046,-0.7188567 0.209798,-1.1506647 0.365948,-1.3733657 0.158728,-0.226374 0.28875,-0.26235 0.465369,-0.247493 0.05656,0.0048 0.209409,0.05382 0.3759969,0.141727 0.16659,0.08791 0.354595,0.212408 0.517723,0.359604 0.327934,0.2959 0.560914,0.6728217 0.525655,1.0095317 -0.09399,0.897696 -0.06288,0.72735 -0.08831,1.02963 -0.01773,0.210675 0.05867,0.408563 0.219993,0.511376 0.149457,0.09525 0.315806,0.107854 0.485993,0.122159 0.197338,0.01658 0.386279,-0.0087 0.545221,-0.0862 0.16152,-0.07869 0.297631,-0.221634 0.329989,-0.413543 v -0.0021 c 0.0083,-0.04949 0.01528,-0.118971 0.02591,-0.235856 0.01071,-0.117345 0.02328,-0.272282 0.03807,-0.45162 0.0296,-0.358827 0.06788,-0.818088 0.104183,-1.2771207 0.0363,-0.459055 0.07011,-0.918205 0.09942,-1.273417 0.01466,-0.177594 0.02776,-0.328349 0.03808,-0.441572 0.0051,-0.05615 0.01038,-0.104795 0.01428,-0.14014 0.0038,-0.03534 0.0085,-0.07154 0.0058,-0.05605 0.03019,-0.171197 -0.03392,-0.342325 -0.167639,-0.435753 -0.118862,-0.08303 -0.252816,-0.103702 -0.381814,-0.115815 -0.22788,-0.02144 -0.281155,-0.02538 -0.291911,-0.02591 h -0.0021 -0.01005 c -0.04052,-0.0029 -0.08108,-0.0047 -0.120044,-0.0037 z" />
      </g>
    </g>
  </g>
</svg>
