<?xml version="1.0" encoding="UTF-8" standalone="no"?>
<!-- Created with Inkscape (http://www.inkscape.org/) -->

<svg
   width="60"
   height="60"
   viewBox="0 0 15.874999 15.875"
   version="1.1"
   id="svg5"
   inkscape:version="1.1 (c68e22c387, 2021-05-23)"
   xmlns:inkscape="http://www.inkscape.org/namespaces/inkscape"
   xmlns:sodipodi="http://sodipodi.sourceforge.net/DTD/sodipodi-0.dtd"
   xmlns="http://www.w3.org/2000/svg"
   xmlns:svg="http://www.w3.org/2000/svg">
  <sodipodi:namedview
     id="namedview7"
     pagecolor="#ffffff"
     bordercolor="#666666"
     borderopacity="1.0"
     inkscape:pageshadow="2"
     inkscape:pageopacity="0.0"
     inkscape:pagecheckerboard="0"
     inkscape:document-units="mm"
     showgrid="false"
     inkscape:snap-midpoints="true"
     inkscape:snap-bbox="true"
     inkscape:bbox-nodes="true"
     inkscape:snap-bbox-midpoints="true"
     inkscape:bbox-paths="true"
     inkscape:snap-bbox-edge-midpoints="true"
     inkscape:snap-intersection-paths="true"
     units="px"
     inkscape:snap-page="true"
     inkscape:zoom="5.6568543"
     inkscape:cx="79.372736"
     inkscape:cy="43.045125"
     inkscape:window-width="1920"
     inkscape:window-height="1017"
     inkscape:window-x="-8"
     inkscape:window-y="-8"
     inkscape:window-maximized="1"
     inkscape:current-layer="path1380"
     inkscape:object-paths="true"
     inkscape:snap-nodes="false" />
  <defs
     id="defs2" />
  <g
     inkscape:label="レイヤー 1"
     inkscape:groupmode="layer"
     id="layer1">
    <g
       id="path1380">
      <path
         id="rect17656"
         style="opacity:1;fill:#4f4f4f;fill-opacity:1;fill-rule:evenodd;stroke:none;stroke-width:0.725123;stroke-miterlimit:4;stroke-dasharray:none;stroke-opacity:1"
         d="m 4.596719,2.5937734 c -1.109603,0 -2.002946,0.8933425 -2.002946,2.0029459 v 6.6819157 c 0,1.109603 0.893343,2.002592 2.002946,2.002592 h 6.681561 c 1.109603,0 2.002947,-0.892989 2.002947,-2.002592 V 4.5967193 c 0,-1.1096034 -0.893344,-2.0029459 -2.002947,-2.0029459 z M 7.934136,4.25186 c 0.0012,0 0.002,-2.9e-6 0.0032,0 2.031843,0 3.686525,1.6546812 3.686525,3.6865252 0,0.00335 -3.45e-4,0.00656 -3.54e-4,0.00991 h 0.0011 c 0,0.01585 -6.06e-4,0.031652 -0.0018,0.04709 -0.03058,2.0056778 -1.672646,3.6277508 -3.685462,3.6277508 -0.0012,0 -0.002,2e-6 -0.0032,0 -2.006895,-0.0017 -3.643313,-1.616167 -3.68086,-3.6146503 -0.0019,-0.019722 -0.0028,-0.039789 -0.0028,-0.060191 h 0.0021 c -10e-6,-0.00335 0,-0.00656 0,-0.00991 0,-2.0307596 1.651212,-3.6847644 3.681568,-3.6865252 z m 0,0.6036809 C 7.611408,4.8573509 7.258574,5.1287967 6.972495,5.6836989 6.685459,6.2404577 6.494508,7.0460673 6.494508,7.9383852 c 0,0.2150949 0.01139,0.4250369 0.03222,0.6277569 0.424718,0.06065 0.904231,0.0956 1.410596,0.0956 0.505099,0 0.983833,-0.03487 1.407763,-0.09524 0.02085,-0.202809 0.03187,-0.4129137 0.03187,-0.6281109 0,-0.8923177 -0.190596,-1.6979275 -0.477634,-2.2546863 C 8.613244,5.1288027 8.260058,4.8573488 7.937329,4.8555469 c -0.0012,-6e-6 -0.002,0 -0.0032,0 z m 1.36917,0.3172422 c 0.04661,0.074912 0.09114,0.1532861 0.132774,0.2340371 0.344304,0.6678394 0.544197,1.5552081 0.544197,2.531565 0,0.1743204 -0.0063,0.3455479 -0.01876,0.5133949 0.100031,-0.02356 0.195058,-0.04816 0.283605,-0.07471 0.286138,-0.08579 0.508993,-0.1882485 0.638025,-0.2797118 0.108789,-0.077107 0.131942,-0.1266779 0.13667,-0.1430422 2.7e-5,-0.00532 3.54e-4,-0.010602 3.54e-4,-0.015933 0,-1.2149218 -0.698611,-2.2630107 -1.716861,-2.7656021 z m -2.736569,0.00283 c -1.015166,0.5035661 -1.710843,1.549869 -1.710843,2.7627695 0,0.00642 3.16e-4,0.012713 3.55e-4,0.01912 0.007,0.019072 0.03417,0.067201 0.136669,0.1398556 0.129033,0.091463 0.350825,0.1939259 0.636963,0.2797119 0.0876,0.02626 0.18157,0.05066 0.280419,0.074 -0.01241,-0.16766 -0.01912,-0.3385681 -0.01912,-0.512686 0,-0.9763569 0.200248,-1.8637256 0.544552,-2.531565 0.04116,-0.079831 0.08498,-0.1570737 0.131004,-0.2312045 z m 4.339066,3.5990707 c -0.14604,0.06736 -0.309227,0.1261948 -0.488255,0.1798648 -0.165206,0.04953 -0.343947,0.0938 -0.534637,0.13242 -0.0913,0.518976 -0.243943,0.9880214 -0.446831,1.3815624 -0.0417,0.08087 -0.08644,0.159371 -0.133128,0.234391 0.775244,-0.382318 1.365378,-1.0805734 1.602851,-1.9282382 z m -5.935191,3.54e-4 C 5.207488,9.6204796 5.794552,10.317301 6.566737,10.700089 6.520667,10.625899 6.476927,10.548435 6.435733,10.468531 6.232768,10.074843 6.079838,9.6054666 5.988549,9.0862606 5.799157,9.0478106 5.621301,9.0037806 5.457097,8.9545486 5.278654,8.9010486 5.116288,8.8421218 4.970612,8.7750378 Z m 1.654546,0.4135478 c 0.08355,0.383533 0.20313,0.725111 0.346983,1.0041284 0.28608,0.554903 0.639267,0.825246 0.961995,0.827096 0.0012,6e-6 0.002,0 0.0032,0 0.322728,-0.0018 0.675916,-0.272193 0.961994,-0.827096 0.143779,-0.2788834 0.263448,-0.6204704 0.346985,-1.0037744 -0.405954,0.04951 -0.846757,0.07648 -1.308979,0.07648 -0.463454,0 -0.905316,-0.02706 -1.312165,-0.07683 z" />
    </g>
  </g>
</svg>
